<?xml version="1.0" encoding="UTF-8" standalone="no"?>
<!-- Generator: Adobe Illustrator 19.0.0, SVG Export Plug-In . SVG Version: 6.00 Build 0)  -->

<svg
   version="1.1"
   id="Capa_1"
   x="0px"
   y="0px"
   viewBox="0 0 490 490"
   style="enable-background:new 0 0 490 490;"
   xml:space="preserve"
   sodipodi:docname="nonis logo.svg"
   inkscape:version="1.1.2 (b8e25be833, 2022-02-05)"
   xmlns:inkscape="http://www.inkscape.org/namespaces/inkscape"
   xmlns:sodipodi="http://sodipodi.sourceforge.net/DTD/sodipodi-0.dtd"
   xmlns="http://www.w3.org/2000/svg"
   xmlns:svg="http://www.w3.org/2000/svg"><defs
   id="defs37"><linearGradient
     id="linearGradient2853"
     inkscape:swatch="gradient"><stop
       style="stop-color:#000000;stop-opacity:1;"
       offset="0"
       id="stop2849" /><stop
       style="stop-color:#000000;stop-opacity:0;"
       offset="1"
       id="stop2851" /></linearGradient></defs><sodipodi:namedview
   id="namedview35"
   pagecolor="#ffffff"
   bordercolor="#666666"
   borderopacity="1.0"
   inkscape:pageshadow="2"
   inkscape:pageopacity="0.0"
   inkscape:pagecheckerboard="0"
   showgrid="false"
   inkscape:zoom="0.59382539"
   inkscape:cx="165.87368"
   inkscape:cy="289.64743"
   inkscape:window-width="1920"
   inkscape:window-height="1009"
   inkscape:window-x="-8"
   inkscape:window-y="-8"
   inkscape:window-maximized="1"
   inkscape:current-layer="layer1" />
<path
   d="m 96.58807,319.75612 c 24.04838,32.67441 46.7623,63.5365 54.45479,88.65282 l 22.53252,73.57365 52.75277,-57.76888 c 18.00854,-19.72018 52.17947,-38.63868 88.3576,-58.66775 42.92013,-23.76144 89.49307,-49.5449 122.15824,-84.52368 18.54827,-19.86201 32.61224,-42.68888 38.97681,-69.79394 7.13661,-30.39017 1.08223,-62.11042 -17.04991,-89.31749 C 438.7775,91.909549 405.57157,70.137385 367.66615,62.177466 331.73286,54.631686 296.15436,60.174602 267.16973,75.307738 247.50114,49.95771 217.6336,30.671505 181.69656,23.124937 106.76524,7.389796 33.378578,48.572823 18.105322,114.92935 1.1514086,190.08405 51.854439,258.97476 96.58807,319.75612 Z"
   id="path2"
   style="fill:none;fill-opacity:1;fill-rule:evenodd;stroke:#ff8384;stroke-width:11.2716;stroke-miterlimit:4;stroke-dasharray:none;stroke-opacity:1"
   sodipodi:nodetypes="cccccsccscscc" />
<g
   id="g4">
</g>
<g
   id="g6">
</g>
<g
   id="g8">
</g>
<g
   id="g10">
</g>
<g
   id="g12">
</g>
<g
   id="g14">
</g>
<g
   id="g16">
</g>
<g
   id="g18">
</g>
<g
   id="g20">
</g>
<g
   id="g22">
</g>
<g
   id="g24">
</g>
<g
   id="g26">
</g>
<g
   id="g28">
</g>
<g
   id="g30">
</g>
<g
   id="g32">
</g>
<g
   inkscape:groupmode="layer"
   id="layer1"
   inkscape:label="second heart"
   style="display:inline"><path
     d="m 120.78556,302.19659 c 19.7642,28.09274 38.43168,54.6273 44.68052,76.2025 l 18.30386,63.20063 44.0014,-49.49847 c 15.02106,-16.89697 43.43082,-33.07688 73.5094,-50.2066 55.94628,-31.86116 119.35768,-67.9731 134.2932,-132.18886 3.96776,-17.05794 3.26092,-34.61451 -1.87042,-51.26505 -2.71285,-8.8029 -6.66242,-17.35252 -11.81171,-25.44133 C 405.47438,107.20866 378.06746,88.458778 346.69734,81.557833 316.95936,75.015949 287.45001,79.710874 263.35668,92.650439 247.18517,70.853233 222.53212,54.243415 192.79105,47.700838 130.77876,34.059092 69.762139,69.28238 56.774755,126.21989 c -8.008684,35.80563 1.275656,69.99068 17.411612,102.26151 12.925572,25.85034 30.247633,50.47237 46.599193,73.71519 z"
     id="path2-1"
     style="fill:none;fill-opacity:1;fill-rule:evenodd;stroke:#ffb3b5;stroke-width:9.50672;stroke-miterlimit:4;stroke-dasharray:none;stroke-opacity:1"
     sodipodi:nodetypes="ccccccscscscsc" /></g><g
   inkscape:groupmode="layer"
   id="layer2"
   inkscape:label="Text"
   style="display:inline"><text
     xml:space="preserve"
     style="font-style:normal;font-weight:normal;font-size:96px;line-height:1.25;font-family:sans-serif;fill:#000000;fill-opacity:1;stroke:none"
     x="117.13074"
     y="140.1767"
     id="text6933"
     transform="rotate(12.984377)"><tspan
       sodipodi:role="line"
       id="tspan6931"
       x="117.13074"
       y="140.1767"
       style="font-style:italic;font-variant:normal;font-weight:bold;font-stretch:normal;font-size:96px;font-family:'Noto Sans';-inkscape-font-specification:'Noto Sans Bold Italic';fill:#ff8384;fill-opacity:1">Nonnis</tspan></text></g></svg>
